<mxfile host="app.diagrams.net" agent="Mozilla/5.0 (Macintosh; Intel Mac OS X 10_15_7) AppleWebKit/537.36 (KHTML, like Gecko) Chrome/127.0.0.0 Safari/537.36" version="24.7.6">
  <diagram name="페이지-1" id="_Jpn-a0KIjrxWkHO4Z-G">
    <mxGraphModel dx="794" dy="589" grid="1" gridSize="10" guides="1" tooltips="1" connect="1" arrows="1" fold="1" page="1" pageScale="1" pageWidth="827" pageHeight="1169" math="0" shadow="0">
      <root>
        <mxCell id="0" />
        <mxCell id="1" parent="0" />
        <mxCell id="I-csYgQDNPIn-90o975r-1" value="" style="points=[[0.35,0,0],[0.98,0.51,0],[1,0.71,0],[0.67,1,0],[0,0.795,0],[0,0.65,0]];verticalLabelPosition=bottom;sketch=0;html=1;verticalAlign=top;aspect=fixed;align=center;pointerEvents=1;shape=mxgraph.cisco19.user;fillColor=#005073;strokeColor=none;" vertex="1" parent="1">
          <mxGeometry x="40" y="190" width="50" height="50" as="geometry" />
        </mxCell>
        <mxCell id="I-csYgQDNPIn-90o975r-2" value="" style="points=[[0.35,0,0],[0.98,0.51,0],[1,0.71,0],[0.67,1,0],[0,0.795,0],[0,0.65,0]];verticalLabelPosition=bottom;sketch=0;html=1;verticalAlign=top;aspect=fixed;align=center;pointerEvents=1;shape=mxgraph.cisco19.user;fillColor=#005073;strokeColor=none;" vertex="1" parent="1">
          <mxGeometry x="40" y="350" width="50" height="50" as="geometry" />
        </mxCell>
        <mxCell id="I-csYgQDNPIn-90o975r-3" value="user" style="text;html=1;align=center;verticalAlign=middle;resizable=0;points=[];autosize=1;strokeColor=none;fillColor=none;" vertex="1" parent="1">
          <mxGeometry x="40" y="240" width="50" height="30" as="geometry" />
        </mxCell>
        <mxCell id="I-csYgQDNPIn-90o975r-4" value="user" style="text;html=1;align=center;verticalAlign=middle;resizable=0;points=[];autosize=1;strokeColor=none;fillColor=none;" vertex="1" parent="1">
          <mxGeometry x="40" y="400" width="50" height="30" as="geometry" />
        </mxCell>
        <mxCell id="I-csYgQDNPIn-90o975r-5" value="" style="sketch=0;outlineConnect=0;fontColor=#232F3E;gradientColor=none;fillColor=#232F3D;strokeColor=none;dashed=0;verticalLabelPosition=bottom;verticalAlign=top;align=center;html=1;fontSize=12;fontStyle=0;aspect=fixed;pointerEvents=1;shape=mxgraph.aws4.traditional_server;" vertex="1" parent="1">
          <mxGeometry x="335" y="200" width="45" height="78" as="geometry" />
        </mxCell>
        <mxCell id="I-csYgQDNPIn-90o975r-7" value="Upload Image Request" style="text;html=1;align=center;verticalAlign=middle;resizable=0;points=[];autosize=1;strokeColor=none;fillColor=none;" vertex="1" parent="1">
          <mxGeometry x="282.5" y="278" width="150" height="30" as="geometry" />
        </mxCell>
        <mxCell id="I-csYgQDNPIn-90o975r-8" value="" style="strokeWidth=2;html=1;shape=mxgraph.flowchart.database;whiteSpace=wrap;" vertex="1" parent="1">
          <mxGeometry x="515" y="140" width="60" height="60" as="geometry" />
        </mxCell>
        <mxCell id="I-csYgQDNPIn-90o975r-9" value="Metadata&lt;div&gt;Storage(DB)&lt;/div&gt;" style="text;html=1;align=center;verticalAlign=middle;resizable=0;points=[];autosize=1;strokeColor=none;fillColor=none;" vertex="1" parent="1">
          <mxGeometry x="500" y="200" width="90" height="40" as="geometry" />
        </mxCell>
        <mxCell id="I-csYgQDNPIn-90o975r-17" value="" style="strokeWidth=2;html=1;shape=mxgraph.flowchart.database;whiteSpace=wrap;" vertex="1" parent="1">
          <mxGeometry x="655" y="67" width="60" height="60" as="geometry" />
        </mxCell>
        <mxCell id="I-csYgQDNPIn-90o975r-18" value="Metadata&lt;div&gt;Storage(DB)&lt;/div&gt;" style="text;html=1;align=center;verticalAlign=middle;resizable=0;points=[];autosize=1;strokeColor=none;fillColor=none;" vertex="1" parent="1">
          <mxGeometry x="640" y="127" width="90" height="40" as="geometry" />
        </mxCell>
        <mxCell id="I-csYgQDNPIn-90o975r-20" value="" style="sketch=0;outlineConnect=0;fontColor=#232F3E;gradientColor=none;fillColor=#232F3D;strokeColor=none;dashed=0;verticalLabelPosition=bottom;verticalAlign=top;align=center;html=1;fontSize=12;fontStyle=0;aspect=fixed;pointerEvents=1;shape=mxgraph.aws4.traditional_server;" vertex="1" parent="1">
          <mxGeometry x="334.5" y="350" width="45" height="78" as="geometry" />
        </mxCell>
        <mxCell id="I-csYgQDNPIn-90o975r-21" value="Download Image Request" style="text;html=1;align=center;verticalAlign=middle;resizable=0;points=[];autosize=1;strokeColor=none;fillColor=none;" vertex="1" parent="1">
          <mxGeometry x="277" y="428" width="160" height="30" as="geometry" />
        </mxCell>
        <mxCell id="I-csYgQDNPIn-90o975r-34" value="" style="endArrow=classic;startArrow=classic;html=1;rounded=0;" edge="1" parent="1" target="I-csYgQDNPIn-90o975r-60">
          <mxGeometry width="50" height="50" relative="1" as="geometry">
            <mxPoint x="380" y="390" as="sourcePoint" />
            <mxPoint x="510" y="381.25" as="targetPoint" />
          </mxGeometry>
        </mxCell>
        <mxCell id="I-csYgQDNPIn-90o975r-35" value="" style="endArrow=classic;startArrow=classic;html=1;rounded=0;" edge="1" parent="1" source="I-csYgQDNPIn-90o975r-20" target="I-csYgQDNPIn-90o975r-9">
          <mxGeometry width="50" height="50" relative="1" as="geometry">
            <mxPoint x="355" y="500" as="sourcePoint" />
            <mxPoint x="515" y="350" as="targetPoint" />
          </mxGeometry>
        </mxCell>
        <mxCell id="I-csYgQDNPIn-90o975r-65" value="select metadata" style="edgeLabel;html=1;align=center;verticalAlign=middle;resizable=0;points=[];" vertex="1" connectable="0" parent="I-csYgQDNPIn-90o975r-35">
          <mxGeometry x="0.1676" y="-1" relative="1" as="geometry">
            <mxPoint x="-43" y="45" as="offset" />
          </mxGeometry>
        </mxCell>
        <mxCell id="I-csYgQDNPIn-90o975r-36" value="" style="endArrow=classic;html=1;rounded=0;" edge="1" parent="1" target="I-csYgQDNPIn-90o975r-59">
          <mxGeometry width="50" height="50" relative="1" as="geometry">
            <mxPoint x="420" y="300" as="sourcePoint" />
            <mxPoint x="510" y="364" as="targetPoint" />
          </mxGeometry>
        </mxCell>
        <mxCell id="I-csYgQDNPIn-90o975r-38" value="" style="endArrow=classic;html=1;rounded=0;" edge="1" parent="1" source="I-csYgQDNPIn-90o975r-5">
          <mxGeometry width="50" height="50" relative="1" as="geometry">
            <mxPoint x="460" y="230" as="sourcePoint" />
            <mxPoint x="510" y="180" as="targetPoint" />
          </mxGeometry>
        </mxCell>
        <mxCell id="I-csYgQDNPIn-90o975r-66" value="Insert metadata" style="edgeLabel;html=1;align=center;verticalAlign=middle;resizable=0;points=[];" vertex="1" connectable="0" parent="I-csYgQDNPIn-90o975r-38">
          <mxGeometry x="0.0631" y="2" relative="1" as="geometry">
            <mxPoint as="offset" />
          </mxGeometry>
        </mxCell>
        <mxCell id="I-csYgQDNPIn-90o975r-39" value="" style="strokeWidth=2;html=1;shape=mxgraph.flowchart.database;whiteSpace=wrap;" vertex="1" parent="1">
          <mxGeometry x="655" y="170" width="60" height="60" as="geometry" />
        </mxCell>
        <mxCell id="I-csYgQDNPIn-90o975r-40" value="Metadata&lt;div&gt;Storage(DB)&lt;/div&gt;" style="text;html=1;align=center;verticalAlign=middle;resizable=0;points=[];autosize=1;strokeColor=none;fillColor=none;" vertex="1" parent="1">
          <mxGeometry x="640" y="230" width="90" height="40" as="geometry" />
        </mxCell>
        <mxCell id="I-csYgQDNPIn-90o975r-45" value="" style="endArrow=classic;html=1;rounded=0;exitX=1;exitY=0.5;exitDx=0;exitDy=0;exitPerimeter=0;" edge="1" parent="1" source="I-csYgQDNPIn-90o975r-8">
          <mxGeometry width="50" height="50" relative="1" as="geometry">
            <mxPoint x="525" y="160" as="sourcePoint" />
            <mxPoint x="655" y="110" as="targetPoint" />
          </mxGeometry>
        </mxCell>
        <mxCell id="I-csYgQDNPIn-90o975r-48" value="Replica" style="edgeLabel;html=1;align=center;verticalAlign=middle;resizable=0;points=[];" vertex="1" connectable="0" parent="I-csYgQDNPIn-90o975r-45">
          <mxGeometry x="0.056" relative="1" as="geometry">
            <mxPoint as="offset" />
          </mxGeometry>
        </mxCell>
        <mxCell id="I-csYgQDNPIn-90o975r-46" value="" style="endArrow=classic;html=1;rounded=0;entryX=-0.017;entryY=0.667;entryDx=0;entryDy=0;entryPerimeter=0;exitX=1.033;exitY=0.617;exitDx=0;exitDy=0;exitPerimeter=0;" edge="1" parent="1" source="I-csYgQDNPIn-90o975r-8" target="I-csYgQDNPIn-90o975r-39">
          <mxGeometry width="50" height="50" relative="1" as="geometry">
            <mxPoint x="580" y="170" as="sourcePoint" />
            <mxPoint x="665" y="120" as="targetPoint" />
          </mxGeometry>
        </mxCell>
        <mxCell id="I-csYgQDNPIn-90o975r-49" value="Replica" style="edgeLabel;html=1;align=center;verticalAlign=middle;resizable=0;points=[];" vertex="1" connectable="0" parent="I-csYgQDNPIn-90o975r-46">
          <mxGeometry x="-0.0781" y="1" relative="1" as="geometry">
            <mxPoint as="offset" />
          </mxGeometry>
        </mxCell>
        <mxCell id="I-csYgQDNPIn-90o975r-52" value="" style="sketch=0;points=[[0.015,0.015,0],[0.985,0.015,0],[0.985,0.985,0],[0.015,0.985,0],[0.25,0,0],[0.5,0,0],[0.75,0,0],[1,0.25,0],[1,0.5,0],[1,0.75,0],[0.75,1,0],[0.5,1,0],[0.25,1,0],[0,0.75,0],[0,0.5,0],[0,0.25,0]];verticalLabelPosition=bottom;html=1;verticalAlign=top;aspect=fixed;align=center;pointerEvents=1;shape=mxgraph.cisco19.rect;prIcon=load_balancer;fillColor=#FAFAFA;strokeColor=#005073;" vertex="1" parent="1">
          <mxGeometry x="170" y="290" width="64" height="50" as="geometry" />
        </mxCell>
        <mxCell id="I-csYgQDNPIn-90o975r-53" value="" style="endArrow=classic;html=1;rounded=0;exitX=1.03;exitY=0.3;exitDx=0;exitDy=0;exitPerimeter=0;" edge="1" parent="1" source="I-csYgQDNPIn-90o975r-3">
          <mxGeometry width="50" height="50" relative="1" as="geometry">
            <mxPoint x="120" y="350" as="sourcePoint" />
            <mxPoint x="170" y="300" as="targetPoint" />
          </mxGeometry>
        </mxCell>
        <mxCell id="I-csYgQDNPIn-90o975r-54" value="" style="endArrow=classic;html=1;rounded=0;exitX=1;exitY=0.5;exitDx=0;exitDy=0;exitPerimeter=0;" edge="1" parent="1">
          <mxGeometry width="50" height="50" relative="1" as="geometry">
            <mxPoint x="234" y="319" as="sourcePoint" />
            <mxPoint x="335" y="389" as="targetPoint" />
          </mxGeometry>
        </mxCell>
        <mxCell id="I-csYgQDNPIn-90o975r-55" value="" style="endArrow=classic;html=1;rounded=0;exitX=1;exitY=0.25;exitDx=0;exitDy=0;exitPerimeter=0;" edge="1" parent="1" source="I-csYgQDNPIn-90o975r-52">
          <mxGeometry width="50" height="50" relative="1" as="geometry">
            <mxPoint x="285" y="290" as="sourcePoint" />
            <mxPoint x="335" y="240" as="targetPoint" />
          </mxGeometry>
        </mxCell>
        <mxCell id="I-csYgQDNPIn-90o975r-56" value="" style="endArrow=classic;html=1;rounded=0;exitX=1;exitY=0.71;exitDx=0;exitDy=0;exitPerimeter=0;" edge="1" parent="1" source="I-csYgQDNPIn-90o975r-2">
          <mxGeometry width="50" height="50" relative="1" as="geometry">
            <mxPoint x="92" y="278" as="sourcePoint" />
            <mxPoint x="170" y="329" as="targetPoint" />
          </mxGeometry>
        </mxCell>
        <mxCell id="I-csYgQDNPIn-90o975r-59" value="Amazon S3" style="sketch=0;outlineConnect=0;fontColor=#232F3E;gradientColor=none;strokeColor=#ffffff;fillColor=#232F3E;dashed=0;verticalLabelPosition=middle;verticalAlign=bottom;align=center;html=1;whiteSpace=wrap;fontSize=10;fontStyle=1;spacing=3;shape=mxgraph.aws4.productIcon;prIcon=mxgraph.aws4.s3;" vertex="1" parent="1">
          <mxGeometry x="590" y="390" width="60" height="80" as="geometry" />
        </mxCell>
        <mxCell id="I-csYgQDNPIn-90o975r-60" value="Amazon Cloudfront" style="sketch=0;outlineConnect=0;fontColor=#232F3E;gradientColor=none;strokeColor=#ffffff;fillColor=#232F3E;dashed=0;verticalLabelPosition=middle;verticalAlign=bottom;align=center;html=1;whiteSpace=wrap;fontSize=10;fontStyle=1;spacing=3;shape=mxgraph.aws4.productIcon;prIcon=mxgraph.aws4.cloudfront;" vertex="1" parent="1">
          <mxGeometry x="490" y="420" width="60" height="89" as="geometry" />
        </mxCell>
        <mxCell id="I-csYgQDNPIn-90o975r-62" value="" style="outlineConnect=0;dashed=0;verticalLabelPosition=bottom;verticalAlign=top;align=center;html=1;shape=mxgraph.aws3.cache_node;fillColor=#2E73B8;gradientColor=none;" vertex="1" parent="1">
          <mxGeometry x="540" y="278" width="57.5" height="50" as="geometry" />
        </mxCell>
        <mxCell id="I-csYgQDNPIn-90o975r-63" value="" style="endArrow=classic;html=1;rounded=0;" edge="1" parent="1" source="I-csYgQDNPIn-90o975r-5">
          <mxGeometry width="50" height="50" relative="1" as="geometry">
            <mxPoint x="450" y="390.00000000000006" as="sourcePoint" />
            <mxPoint x="540" y="302.8" as="targetPoint" />
          </mxGeometry>
        </mxCell>
        <mxCell id="I-csYgQDNPIn-90o975r-67" value="Insert datadata" style="edgeLabel;html=1;align=center;verticalAlign=middle;resizable=0;points=[];" vertex="1" connectable="0" parent="I-csYgQDNPIn-90o975r-63">
          <mxGeometry x="-0.4532" y="2" relative="1" as="geometry">
            <mxPoint x="13" as="offset" />
          </mxGeometry>
        </mxCell>
        <mxCell id="I-csYgQDNPIn-90o975r-64" value="" style="endArrow=classic;startArrow=classic;html=1;rounded=0;" edge="1" parent="1" source="I-csYgQDNPIn-90o975r-20">
          <mxGeometry width="50" height="50" relative="1" as="geometry">
            <mxPoint x="432.5" y="263.5" as="sourcePoint" />
            <mxPoint x="542.5" y="322.5" as="targetPoint" />
          </mxGeometry>
        </mxCell>
        <mxCell id="I-csYgQDNPIn-90o975r-68" value="select image urls" style="edgeLabel;html=1;align=center;verticalAlign=middle;resizable=0;points=[];" vertex="1" connectable="0" parent="1">
          <mxGeometry x="437.00151750206925" y="410.0025421542515" as="geometry">
            <mxPoint x="-5" y="6" as="offset" />
          </mxGeometry>
        </mxCell>
        <mxCell id="I-csYgQDNPIn-90o975r-69" value="save images" style="edgeLabel;html=1;align=center;verticalAlign=middle;resizable=0;points=[];" vertex="1" connectable="0" parent="1">
          <mxGeometry x="530.0015175020692" y="360.0025421542515" as="geometry">
            <mxPoint x="-5" y="6" as="offset" />
          </mxGeometry>
        </mxCell>
        <mxCell id="I-csYgQDNPIn-90o975r-70" value="LRU" style="text;html=1;align=center;verticalAlign=middle;resizable=0;points=[];autosize=1;strokeColor=none;fillColor=none;" vertex="1" parent="1">
          <mxGeometry x="543.75" y="320" width="50" height="30" as="geometry" />
        </mxCell>
      </root>
    </mxGraphModel>
  </diagram>
</mxfile>
